<svg width="24" height="24" viewBox="0 0 24 24" fill="none" xmlns="http://www.w3.org/2000/svg">
<mask id="mask0_210_3959" style="mask-type:luminance" maskUnits="userSpaceOnUse" x="1" y="0" width="22" height="24">
<path fill-rule="evenodd" clip-rule="evenodd" d="M2 1H22.4998V22.505H2V1Z" fill="white" stroke="white"/>
</mask>
<g mask="url(#mask0_210_3959)">
<path fill-rule="evenodd" clip-rule="evenodd" d="M13.717 15.2913C14.921 15.2913 15.901 16.2643 15.901 17.4603V20.5362C15.901 20.7932 16.107 20.9992 16.371 21.0052H18.277C19.779 21.0052 21 19.7993 21 18.3173V9.59325C20.993 9.08325 20.75 8.60325 20.333 8.28425L13.74 3.02625C12.855 2.32525 11.617 2.32525 10.729 3.02825L4.181 8.28225C3.748 8.61125 3.505 9.09125 3.5 9.61025V18.3173C3.5 19.7993 4.721 21.0052 6.223 21.0052H8.147C8.418 21.0052 8.638 20.7902 8.638 20.5262C8.638 20.4682 8.645 20.4102 8.657 20.3552V17.4603C8.657 16.2713 9.631 15.2993 10.826 15.2913H13.717ZM18.277 22.5053H16.353C15.251 22.4793 14.401 21.6143 14.401 20.5363V17.4603C14.401 17.0913 14.094 16.7913 13.717 16.7913H10.831C10.462 16.7933 10.157 17.0943 10.157 17.4603V20.5263C10.157 20.6013 10.147 20.6733 10.126 20.7413C10.018 21.7313 9.172 22.5053 8.147 22.5053H6.223C3.894 22.5053 2 20.6262 2 18.3172V9.60325C2.01 8.60925 2.468 7.69925 3.259 7.10025L9.794 1.85525C11.233 0.71525 13.238 0.71525 14.674 1.85325L21.256 7.10325C22.029 7.69225 22.487 8.60025 22.5 9.58225V18.3172C22.5 20.6262 20.606 22.5053 18.277 22.5053Z" fill="white"/>
<path d="M16.371 21.0052L16.3596 21.5052H16.371V21.0052ZM21 9.59325H21.5L21.5 9.58639L21 9.59325ZM20.333 8.28425L20.0212 8.67524L20.0292 8.68138L20.333 8.28425ZM13.74 3.02625L14.0518 2.63534L14.0505 2.63431L13.74 3.02625ZM10.729 3.02825L10.4186 2.63622L10.4161 2.63827L10.729 3.02825ZM4.181 8.28225L4.4836 8.68051L4.49391 8.67223L4.181 8.28225ZM3.5 9.61025L3 9.60543V9.61025H3.5ZM8.657 20.3552L9.14551 20.4618L9.157 20.4092V20.3552H8.657ZM10.826 15.2913V14.7912L10.8227 14.7913L10.826 15.2913ZM16.353 22.5053L16.3412 23.0053H16.353V22.5053ZM10.831 16.7913V16.2912L10.8283 16.2913L10.831 16.7913ZM10.126 20.7413L9.64826 20.5937L9.63414 20.6394L9.62895 20.687L10.126 20.7413ZM2 9.60325L1.5 9.59822V9.60325H2ZM3.259 7.10025L3.56097 7.49901L3.57197 7.49019L3.259 7.10025ZM9.794 1.85525L9.48351 1.46332L9.48103 1.46531L9.794 1.85525ZM14.674 1.85325L14.9858 1.46236L14.9845 1.46138L14.674 1.85325ZM21.256 7.10325L20.9441 7.49423L20.953 7.50095L21.256 7.10325ZM22.5 9.58225H23L23 9.57563L22.5 9.58225ZM13.717 15.2913V15.7913C14.6482 15.7913 15.401 16.5437 15.401 17.4603H15.901H16.401C16.401 15.9848 15.1938 14.7913 13.717 14.7913V15.2913ZM15.901 17.4603H15.401V20.5362H15.901H16.401V17.4603H15.901ZM15.901 20.5362H15.401C15.401 21.0762 15.8353 21.4932 16.3596 21.5051L16.371 21.0052L16.3824 20.5054C16.3803 20.5053 16.3809 20.505 16.383 20.506C16.385 20.5068 16.3876 20.5084 16.3903 20.5111C16.393 20.5138 16.3958 20.5177 16.398 20.5227C16.4003 20.5281 16.401 20.5331 16.401 20.5362H15.901ZM16.371 21.0052V21.5052H18.277V21.0052V20.5052H16.371V21.0052ZM18.277 21.0052V21.5052C20.0491 21.5052 21.5 20.0814 21.5 18.3173H21H20.5C20.5 19.5171 19.5089 20.5052 18.277 20.5052V21.0052ZM21 18.3173H21.5V9.59325H21H20.5V18.3173H21ZM21 9.59325L21.5 9.58639C21.4908 8.91956 21.1727 8.29709 20.6368 7.88713L20.333 8.28425L20.0292 8.68138C20.3273 8.90941 20.4952 9.24694 20.5 9.60011L21 9.59325ZM20.333 8.28425L20.6448 7.89334L14.0518 2.63534L13.74 3.02625L13.4282 3.41716L20.0212 8.67516L20.333 8.28425ZM13.74 3.02625L14.0505 2.63431C12.9832 1.78894 11.4881 1.78954 10.4186 2.63623L10.729 3.02825L11.0394 3.42027C11.7459 2.86096 12.7268 2.86156 13.4295 3.41819L13.74 3.02625ZM10.729 3.02825L10.4161 2.63827L3.86809 7.89227L4.181 8.28225L4.49391 8.67223L11.0419 3.41823L10.729 3.02825ZM4.181 8.28225L3.8785 7.88413C3.32666 8.30344 3.00656 8.92661 3.00002 9.60543L3.5 9.61025L3.99998 9.61507C4.00344 9.25589 4.16934 8.91906 4.48349 8.68037L4.181 8.28225ZM3.5 9.61025H3V18.3173H3.5H4V9.61025H3.5ZM3.5 18.3173H3C3 20.0814 4.45089 21.5052 6.223 21.5052V21.0052V20.5052C4.99111 20.5052 4 19.5171 4 18.3173H3.5ZM6.223 21.0052V21.5052H8.147V21.0052V20.5052H6.223V21.0052ZM8.147 21.0052V21.5052C8.68267 21.5052 9.138 21.0777 9.138 20.5262H8.638H8.138C8.138 20.5221 8.13897 20.5174 8.14072 20.5134C8.14231 20.5098 8.14401 20.5078 8.14488 20.5069C8.14574 20.5061 8.14645 20.5057 8.14702 20.5055C8.1479 20.5051 8.14818 20.5052 8.147 20.5052V21.0052ZM8.638 20.5262H9.138C9.138 20.5078 9.14032 20.4856 9.14551 20.4618L8.657 20.3552L8.16849 20.2487C8.14968 20.3349 8.138 20.4287 8.138 20.5262H8.638ZM8.657 20.3552H9.157V17.4603H8.657H8.157V20.3552H8.657ZM8.657 17.4603H9.157C9.157 16.5495 9.90573 15.7974 10.8293 15.7912L10.826 15.2913L10.8227 14.7913C9.35627 14.8011 8.157 15.993 8.157 17.4603H8.657ZM10.826 15.2913V15.7913H13.717V15.2913V14.7913H10.826V15.2913ZM18.277 22.5053V22.0053H16.353V22.5053V23.0053H18.277V22.5053ZM16.353 22.5053L16.3648 22.0054C15.5285 21.9857 14.901 21.337 14.901 20.5363H14.401H13.901C13.901 21.8915 14.9735 22.9728 16.3412 23.0051L16.353 22.5053ZM14.401 20.5363H14.901V17.4603H14.401H13.901V20.5363H14.401ZM14.401 17.4603H14.901C14.901 16.8046 14.3595 16.2913 13.717 16.2913V16.7913V17.2913C13.8285 17.2913 13.901 17.3779 13.901 17.4603H14.401ZM13.717 16.7913V16.2913H10.831V16.7913V17.2913H13.717V16.7913ZM10.831 16.7913L10.8283 16.2913C10.1911 16.2947 9.657 16.8123 9.657 17.4603H10.157H10.657C10.657 17.3762 10.7329 17.2918 10.8337 17.2912L10.831 16.7913ZM10.157 17.4603H9.657V20.5263H10.157H10.657V17.4603H10.157ZM10.157 20.5263H9.657C9.657 20.5567 9.65298 20.5784 9.64826 20.5937L10.126 20.7413L10.6037 20.8888C10.641 20.7681 10.657 20.6458 10.657 20.5263H10.157ZM10.126 20.7413L9.62895 20.687C9.54854 21.4241 8.91607 22.0053 8.147 22.0053V22.5053V23.0053C9.42793 23.0053 10.4875 22.0384 10.6231 20.7955L10.126 20.7413ZM8.147 22.5053V22.0053H6.223V22.5053V23.0053H8.147V22.5053ZM6.223 22.5053V22.0053C4.16627 22.0053 2.5 20.3462 2.5 18.3172H2H1.5C1.5 20.9063 3.62173 23.0053 6.223 23.0053V22.5053ZM2 18.3172H2.5V9.60325H2H1.5V18.3172H2ZM2 9.60325L2.49997 9.60828C2.50842 8.76888 2.89341 8.00429 3.56085 7.49886L3.259 7.10025L2.95715 6.70165C2.04259 7.39421 1.51158 8.44962 1.50003 9.59822L2 9.60325ZM3.259 7.10025L3.57197 7.49019L10.107 2.24519L9.794 1.85525L9.48103 1.46531L2.94603 6.71031L3.259 7.10025ZM9.794 1.85525L10.1045 2.24717C11.3618 1.2511 13.1096 1.25147 14.3635 2.24512L14.674 1.85325L14.9845 1.46138C13.3664 0.179029 11.1042 0.1794 9.48352 1.46333L9.794 1.85525ZM14.674 1.85325L14.3622 2.24414L20.9442 7.49414L21.256 7.10325L21.5678 6.71236L14.9858 1.46236L14.674 1.85325ZM21.256 7.10325L20.953 7.50095C21.6032 7.99643 21.9891 8.75997 22 9.58887L22.5 9.58225L23 9.57563C22.9849 8.44053 22.4548 7.38807 21.559 6.70555L21.256 7.10325ZM22.5 9.58225H22V18.3172H22.5H23V9.58225H22.5ZM22.5 18.3172H22C22 20.3462 20.3337 22.0053 18.277 22.0053V22.5053V23.0053C20.8783 23.0053 23 20.9063 23 18.3172H22.5Z" fill="white"/>
</g>
</svg>
