<svg width="24" height="24" viewBox="0 0 24 24" fill="none" xmlns="http://www.w3.org/2000/svg">
<path d="M6.23679 5.65276L6.51684 5.23854L6.23679 5.65276ZM9.02038 3.97999L8.52318 4.03286L9.02038 3.97999ZM3.34589 6.0975L2.91977 5.83592L3.34589 6.0975ZM6.03492 5.51627L5.75487 5.93048H5.75487L6.03492 5.51627ZM3.06557 10.3912L3.26093 9.93094L3.06557 10.3912ZM2.25897 7.86812L2.68509 8.1297H2.68509L2.25897 7.86812ZM3.06548 13.6088L3.26084 14.069L3.06548 13.6088ZM2.25881 16.132L1.83269 16.3935L2.25881 16.132ZM6.03479 18.4837L6.31483 18.8979L6.31484 18.8979L6.03479 18.4837ZM3.34564 17.9024L3.77176 17.6409L3.34564 17.9024ZM9.02038 20.02L9.51758 20.0728L9.02038 20.02ZM6.23673 18.3472L5.95668 17.9329L5.95668 17.9329L6.23673 18.3472ZM14.9788 20.0199L15.4759 19.967L14.9788 20.0199ZM17.7625 18.3471L18.0425 17.9328L18.0425 17.9328L17.7625 18.3471ZM20.6538 17.9024L20.2276 17.6408L20.6538 17.9024ZM17.9645 18.4836L17.6844 18.8979H17.6844L17.9645 18.4836ZM20.9339 13.6088L20.7385 14.069L20.9339 13.6088ZM21.7405 16.132L22.1667 16.3935L21.7405 16.132ZM20.9338 10.3912L21.1291 10.8515L20.9338 10.3912ZM21.7404 7.86812L22.1665 7.60654L21.7404 7.86812ZM17.9644 5.51632L18.2444 5.93054V5.93054L17.9644 5.51632ZM20.6535 6.09757L20.2274 6.35915L20.6535 6.09757ZM14.9788 3.98005L14.4816 3.92718L14.9788 3.98005ZM17.7624 5.65286L17.4824 5.23864L17.4824 5.23864L17.7624 5.65286ZM14.9995 12H14.4995C14.4995 13.3807 13.3802 14.5 11.9995 14.5V15V15.5C13.9325 15.5 15.4995 13.933 15.4995 12H14.9995ZM11.9995 15V14.5C10.6188 14.5 9.49951 13.3807 9.49951 12H8.99951H8.49951C8.49951 13.933 10.0665 15.5 11.9995 15.5V15ZM8.99951 12H9.49951C9.49951 10.6193 10.6188 9.5 11.9995 9.5V9V8.5C10.0665 8.5 8.49951 10.067 8.49951 12H8.99951ZM11.9995 9V9.5C13.3802 9.5 14.4995 10.6193 14.4995 12H14.9995H15.4995C15.4995 10.067 13.9325 8.5 11.9995 8.5V9ZM13.1981 2V1.5H10.801V2V2.5H13.1981V2ZM17.9644 5.51632L17.6843 5.10211L17.4824 5.23864L17.7624 5.65286L18.0425 6.06707L18.2444 5.93054L17.9644 5.51632ZM21.7404 7.86812L22.1665 7.60654L21.0796 5.83599L20.6535 6.09757L20.2274 6.35915L21.3143 8.1297L21.7404 7.86812ZM20.6538 17.9024L21.0799 18.1639L22.1667 16.3935L21.7405 16.132L21.3144 15.8704L20.2276 17.6408L20.6538 17.9024ZM17.7625 18.3471L17.4824 18.7613L17.6844 18.8979L17.9645 18.4836L18.2445 18.0694L18.0425 17.9328L17.7625 18.3471ZM10.8011 22V22.5H13.198V22V21.5H10.8011V22ZM6.03479 18.4837L6.31484 18.8979L6.51678 18.7614L6.23673 18.3472L5.95668 17.9329L5.75473 18.0695L6.03479 18.4837ZM2.25881 16.132L1.83269 16.3935L2.91952 18.164L3.34564 17.9024L3.77176 17.6409L2.68492 15.8704L2.25881 16.132ZM3.34589 6.0975L2.91977 5.83592L1.83285 7.60654L2.25897 7.86812L2.68509 8.1297L3.77201 6.35907L3.34589 6.0975ZM6.23679 5.65276L6.51684 5.23854L6.31497 5.10206L6.03492 5.51627L5.75487 5.93048L5.95674 6.06697L6.23679 5.65276ZM6.23679 5.65276L5.95674 6.06697C7.57071 7.15817 9.72356 5.86444 9.51758 3.92713L9.02038 3.97999L8.52318 4.03286C8.63924 5.12443 7.42622 5.85338 6.51684 5.23854L6.23679 5.65276ZM3.34589 6.0975L3.77201 6.35907C4.19032 5.67763 5.09246 5.48263 5.75487 5.93048L6.03492 5.51627L6.31497 5.10206C5.18075 4.33521 3.63603 4.6691 2.91977 5.83592L3.34589 6.0975ZM3.06557 10.3912L3.26093 9.93094C2.55865 9.63286 2.28596 8.77989 2.68509 8.1297L2.25897 7.86812L1.83285 7.60654C1.11383 8.77785 1.60507 10.3145 2.87021 10.8515L3.06557 10.3912ZM3.06548 13.6088L3.26084 14.069C5.08676 13.294 5.08696 10.706 3.26093 9.93094L3.06557 10.3912L2.87021 10.8515C3.88375 11.2817 3.88377 12.7183 2.87012 13.1485L3.06548 13.6088ZM2.25881 16.132L2.68492 15.8704C2.28579 15.2202 2.5585 14.3671 3.26084 14.069L3.06548 13.6088L2.87012 13.1485C1.60496 13.6855 1.11364 15.2222 1.83269 16.3935L2.25881 16.132ZM6.03479 18.4837L5.75474 18.0695C5.09229 18.5174 4.1901 18.3224 3.77176 17.6409L3.34564 17.9024L2.91952 18.164C3.63581 19.3309 5.18058 19.6648 6.31483 18.8979L6.03479 18.4837ZM9.02038 20.02L9.51758 20.0728C9.72357 18.1355 7.57067 16.8417 5.95668 17.9329L6.23673 18.3472L6.51678 18.7614C7.42619 18.1465 8.63925 18.8755 8.52319 19.9671L9.02038 20.02ZM10.8011 22V21.5C10.0342 21.5 9.4365 20.8354 9.51758 20.0728L9.02038 20.02L8.52319 19.9671C8.37929 21.3204 9.4401 22.5 10.8011 22.5V22ZM14.9788 20.0199L14.4816 20.0728C14.5626 20.8353 13.9649 21.5 13.198 21.5V22V22.5C14.559 22.5 15.6198 21.3204 15.4759 19.967L14.9788 20.0199ZM17.7625 18.3471L18.0425 17.9328C16.4285 16.8416 14.2756 18.1354 14.4816 20.0728L14.9788 20.0199L15.4759 19.967C15.3599 18.8754 16.573 18.1464 17.4824 18.7613L17.7625 18.3471ZM20.6538 17.9024L20.2276 17.6408C19.8093 18.3223 18.907 18.5173 18.2445 18.0694L17.9645 18.4836L17.6844 18.8979C18.8187 19.6648 20.3636 19.3308 21.0799 18.1639L20.6538 17.9024ZM20.9339 13.6088L20.7385 14.069C21.4408 14.3671 21.7136 15.2202 21.3144 15.8704L21.7405 16.132L22.1667 16.3935C22.8857 15.2222 22.3944 13.6855 21.1292 13.1485L20.9339 13.6088ZM20.9338 10.3912L20.7384 9.93094C18.9124 10.706 18.9126 13.294 20.7385 14.069L20.9339 13.6088L21.1292 13.1485C20.1156 12.7183 20.1156 11.2817 21.1291 10.8515L20.9338 10.3912ZM21.7404 7.86812L21.3143 8.1297C21.7134 8.77989 21.4407 9.63286 20.7384 9.93094L20.9338 10.3912L21.1291 10.8515C22.3943 10.3145 22.8855 8.77785 22.1665 7.60654L21.7404 7.86812ZM17.9644 5.51632L18.2444 5.93054C18.9069 5.48265 19.809 5.67766 20.2274 6.35915L20.6535 6.09757L21.0796 5.83599C20.3633 4.66913 18.8186 4.33524 17.6843 5.10211L17.9644 5.51632ZM14.9788 3.98005L14.4816 3.92718C14.2756 5.86453 16.4285 7.15829 18.0425 6.06707L17.7624 5.65286L17.4824 5.23864C16.573 5.85349 15.3599 5.12452 15.476 4.03291L14.9788 3.98005ZM10.801 2V1.5C9.44008 1.5 8.37929 2.67955 8.52318 4.03286L9.02038 3.97999L9.51758 3.92713C9.4365 3.16462 10.0342 2.5 10.801 2.5V2ZM13.1981 2V2.5C13.9649 2.5 14.5626 3.16464 14.4816 3.92718L14.9788 3.98005L15.476 4.03291C15.6198 2.67958 14.559 1.5 13.1981 1.5V2Z" fill="white"/>
</svg>
