<svg width="24" height="24" viewBox="0 0 24 24" fill="none" xmlns="http://www.w3.org/2000/svg">
<path fill-rule="evenodd" clip-rule="evenodd" d="M12 1C9.1311 1 7 3.57642 7 6.5C7 9.42358 9.1311 12 12 12C14.8689 12 17 9.42358 17 6.5C17 3.57642 14.8689 1 12 1Z" fill="white"/>
<path fill-rule="evenodd" clip-rule="evenodd" d="M9.16667 14C6.22893 14 3.46264 15.3831 1.7 17.7333L1.65 17.8C1.22808 18.3626 1 19.0468 1 19.75C1 21.5449 2.45508 23 4.25 23H19.75C21.5449 23 23 21.5449 23 19.75C23 19.0468 22.7719 18.3626 22.35 17.8L22.3 17.7333C20.5374 15.3831 17.7711 14 14.8333 14H9.16667Z" fill="white"/>
</svg>
